<?xml version="1.0" encoding="utf-8"?>
<!-- Generator: Adobe Illustrator 27.3.1, SVG Export Plug-In . SVG Version: 6.00 Build 0)  -->
<svg version="1.1" id="Layer_1" xmlns="http://www.w3.org/2000/svg" xmlns:xlink="http://www.w3.org/1999/xlink" x="0px" y="0px"
	 viewBox="0 0 24.9 25.4" style="enable-background:new 0 0 24.9 25.4;" xml:space="preserve">
<path d="M12.7,10.9h12c0.1,0.7,0.2,1.4,0.2,2.1c0,2.4-0.5,4.5-1.5,6.4c-1,1.9-2.4,3.4-4.3,4.4s-4,1.6-6.4,1.6c-1.7,0-3.4-0.3-4.9-1
	c-1.6-0.7-2.9-1.6-4.1-2.7c-1.1-1.1-2-2.5-2.7-4.1s-1-3.2-1-5C0,11,0.3,9.3,1,7.8s1.6-2.9,2.7-4.1s2.5-2,4.1-2.7s3.2-1,4.9-1
	c3.3,0,6.2,1.1,8.5,3.3l-3.5,3.3c-1.4-1.3-3-2-5.1-2C11.3,4.7,10,5,8.8,5.8S6.6,7.5,5.9,8.7s-1.1,2.6-1.1,4s0.4,2.8,1.1,4
	s1.7,2.2,2.9,2.9c1.2,0.7,2.5,1.1,3.9,1.1c1,0,1.8-0.1,2.6-0.4c0.8-0.3,1.5-0.6,2-1s1-0.9,1.4-1.4c0.4-0.5,0.7-1,0.9-1.4
	c0.2-0.5,0.3-0.9,0.4-1.3h-7.2L12.7,10.9L12.7,10.9z"/>
</svg>
