<?xml version="1.0" encoding="utf-8"?>
<!-- Generator: Adobe Illustrator 27.3.1, SVG Export Plug-In . SVG Version: 6.00 Build 0)  -->
<svg version="1.1" id="Layer_1" xmlns="http://www.w3.org/2000/svg" xmlns:xlink="http://www.w3.org/1999/xlink" x="0px" y="0px"
	 viewBox="0 0 29.7 29.7" style="enable-background:new 0 0 29.7 29.7;" xml:space="preserve">
<path d="M29.7,7.9c-0.1,2.9-2.2,6.9-6.1,11.9c-4,5.2-7.5,7.9-10.2,7.9c-1.7,0-3.2-1.6-4.4-4.8C8.2,20,7.4,17,6.6,14.1
	c-0.9-3.2-1.8-4.8-2.9-4.8c-0.2,0-1,0.5-2.3,1.4L0,8.9c1.5-1.3,2.9-2.6,4.3-3.9c2-1.7,3.4-2.6,4.4-2.7C11,2.2,12.5,3.7,13,7.1
	c0.6,3.6,1,5.9,1.2,6.8c0.7,3,1.4,4.5,2.2,4.5c0.6,0,1.6-1,2.8-2.9c1.2-2,1.9-3.5,2-4.5c0.2-1.7-0.5-2.5-2-2.5
	c-0.7,0-1.4,0.2-2.2,0.5c1.5-4.8,4.2-7.1,8.4-7C28.4,2.1,29.9,4.1,29.7,7.9L29.7,7.9z"/>
</svg>
