<?xml version="1.0" encoding="UTF-8"?><svg xmlns="http://www.w3.org/2000/svg" version="1.1" viewBox="0 0 61 65"><path d="M60.8,14.4c-.9-7-7-12.5-14.2-13.6C45.3.7,40.7,0,30,0h0C19.2,0,16.9.7,15.7.8,8.7,1.9,2.3,6.8.7,13.9,0,17.4,0,21.2,0,24.8c.2,5.1.2,10.1.7,15.2.3,3.4.9,6.7,1.7,10,1.5,6.1,7.5,11.1,13.3,13.2,6.3,2.1,13,2.5,19.5,1,.7-.2,1.4-.4,2.1-.6,1.6-.5,3.4-1.1,4.8-2,0,0,0,0,0,0,0,0,0,0,0,0v-4.9s0,0,0,0c0,0,0,0,0,0s0,0,0,0c0,0,0,0,0,0-4.1,1-8.4,1.5-12.6,1.5-7.3,0-9.3-3.5-9.9-4.9-.5-1.3-.7-2.6-.9-3.9,0,0,0,0,0,0,0,0,0,0,0,0,0,0,0,0,0,0,0,0,0,0,0,0,4.1,1,8.2,1.5,12.4,1.5,1,0,2,0,3,0,4.2-.1,8.7-.3,12.8-1.1.1,0,.2,0,.3,0,6.5-1.3,12.8-5.2,13.4-15.2,0-.4,0-4.1,0-4.5,0-1.4.4-9.8,0-15ZM16,22c-2,0-3.7-1.6-3.7-3.7s1.6-3.7,3.7-3.7,3.7,1.6,3.7,3.7-1.6,3.7-3.7,3.7Z"/></svg>