<?xml version="1.0" encoding="utf-8"?><svg version="1.1" xmlns="http://www.w3.org/2000/svg" xmlns:xlink="http://www.w3.org/1999/xlink" x="0px" y="0px" viewBox="0 0 29.2 29.2" style="enable-background:new 0 0 29.2 29.2" xml:space="preserve"><path d="M20.9,14.6c0-0.4-0.2-0.7-0.5-0.9L12,8.5c-0.3-0.2-0.7-0.2-1.1,0c-0.4,0.2-0.5,0.5-0.5,0.9v10.4c0,0.4,0.2,0.7,0.5,0.9
	c0.2,0.1,0.3,0.1,0.5,0.1c0.2,0,0.4-0.1,0.6-0.2l8.3-5.2C20.7,15.3,20.9,15,20.9,14.6z M29.2,14.6c0,1,0,1.9,0,2.4s-0.1,1.3-0.1,2.2
	s-0.2,1.7-0.4,2.4c-0.2,0.8-0.5,1.5-1.1,2c-0.6,0.5-1.2,0.9-2,0.9c-2.4,0.3-6.1,0.4-10.9,0.4c-4.9,0-8.5-0.1-10.9-0.4
	c-0.8-0.1-1.4-0.4-2-0.9c-0.6-0.5-1-1.2-1.1-2c-0.2-0.7-0.3-1.5-0.4-2.4C0.1,18.4,0,17.6,0,17s0-1.4,0-2.4s0-1.9,0-2.4
	s0.1-1.3,0.1-2.2C0.2,9,0.4,8.2,0.5,7.5c0.2-0.8,0.5-1.5,1.1-2c0.6-0.5,1.2-0.9,2-0.9c2.4-0.3,6.1-0.4,10.9-0.4s8.5,0.1,10.9,0.4
	c0.8,0.1,1.4,0.4,2,0.9s1,1.2,1.1,2C28.8,8.2,29,9,29,9.9s0.1,1.6,0.1,2.2S29.2,13.6,29.2,14.6z"/></svg>